<?xml version="1.0" encoding="UTF-8" standalone="no"?>
<svg
   xmlns:dc="http://purl.org/dc/elements/1.1/"
   xmlns:cc="http://creativecommons.org/ns#"
   xmlns:rdf="http://www.w3.org/1999/02/22-rdf-syntax-ns#"
   xmlns:svg="http://www.w3.org/2000/svg"
   xmlns="http://www.w3.org/2000/svg"
   xmlns:sodipodi="http://sodipodi.sourceforge.net/DTD/sodipodi-0.dtd"
   xmlns:inkscape="http://www.inkscape.org/namespaces/inkscape"
   version="1.1"
   id="Capa_1"
   x="0px"
   y="0px"
   viewBox="0 0 512 512"
   style="enable-background:new 0 0 512 512;"
   xml:space="preserve"
   sodipodi:docname="curriculum-vitae.svg"
   inkscape:version="1.0.1 (c497b03c, 2020-09-10)"><metadata
   id="metadata880"><rdf:RDF><cc:Work
       rdf:about=""><dc:format>image/svg+xml</dc:format><dc:type
         rdf:resource="http://purl.org/dc/dcmitype/StillImage" /><dc:title></dc:title></cc:Work></rdf:RDF></metadata><defs
   id="defs878">
	

	
</defs><sodipodi:namedview
   pagecolor="#000000"
   bordercolor="#666666"
   borderopacity="1"
   objecttolerance="10"
   gridtolerance="10"
   guidetolerance="10"
   inkscape:pageopacity="1"
   inkscape:pageshadow="2"
   inkscape:window-width="776"
   inkscape:window-height="480"
   id="namedview876"
   showgrid="false"
   inkscape:zoom="0.24890261"
   inkscape:cx="122.08115"
   inkscape:cy="200.09187"
   inkscape:window-x="0"
   inkscape:window-y="25"
   inkscape:window-maximized="0"
   inkscape:current-layer="Capa_1" />
<g
   id="g835"
   style="fill:#ffffff">
		<polygon
   points="9.545,22.591 39.863,453.709 68.863,451.669 68.863,79.817 420.93,79.817 420.93,478.34 456.185,482.135 502.455,52.438 333.205,34.213 330.799,0 "
   id="polygon833"
   style="fill:#ffffff" />
	</g>
<g
   id="g841"
   style="fill:#ffffff">
		<path
   d="M 98.884,109.838 V 512 H 390.91 V 109.838 Z m 96.206,68.448 c 18.508,0 33.097,6.755 42.418,18.912 l -20.128,17.966 c -5.539,-7.025 -12.157,-11.078 -20.668,-11.078 -13.239,0 -22.154,9.186 -22.154,23.64 0,14.454 8.916,23.64 22.154,23.64 8.511,0 15.13,-4.053 20.668,-11.078 l 20.128,17.966 c -9.321,12.157 -23.911,18.912 -42.418,18.912 -30.395,0 -52.684,-20.398 -52.684,-49.442 0,-29.04 22.29,-49.438 52.684,-49.438 z M 342.795,448.571 H 146.998 V 418.55 h 195.797 z m 0,-53.399 H 146.998 v -30.021 h 195.797 z m 0,-53.399 H 146.998 v -30.021 h 195.797 z m -35.039,-66.764 h -31.341 l -39.986,-94.562 h 34.313 l 22.56,55.251 23.101,-55.251 h 31.339 z"
   id="path839"
   style="fill:#ffffff" />
	</g>
<g
   id="g845">
</g>
<g
   id="g847">
</g>
<g
   id="g849">
</g>
<g
   id="g851">
</g>
<g
   id="g853">
</g>
<g
   id="g855">
</g>
<g
   id="g857">
</g>
<g
   id="g859">
</g>
<g
   id="g861">
</g>
<g
   id="g863">
</g>
<g
   id="g865">
</g>
<g
   id="g867">
</g>
<g
   id="g869">
</g>
<g
   id="g871">
</g>
<g
   id="g873">
</g>
</svg>
