<?xml version="1.0" encoding="UTF-8" standalone="no"?>
<svg
   xmlns:dc="http://purl.org/dc/elements/1.1/"
   xmlns:cc="http://creativecommons.org/ns#"
   xmlns:rdf="http://www.w3.org/1999/02/22-rdf-syntax-ns#"
   xmlns:svg="http://www.w3.org/2000/svg"
   xmlns="http://www.w3.org/2000/svg"
   id="svg5269"
   viewBox="0 0 16 16"
   height="16"
   width="16"
   version="1.1">
  <metadata
     id="metadata5277">
    <rdf:RDF>
      <cc:Work
         rdf:about="">
        <dc:format>image/svg+xml</dc:format>
        <dc:type
           rdf:resource="http://purl.org/dc/dcmitype/StillImage" />
        <dc:title></dc:title>
      </cc:Work>
    </rdf:RDF>
  </metadata>
  <defs
     id="defs5275" />
  <path
     style="fill:#ffffff"
     id="path5271"
     d="M13.344 0h-10.688c-1.461 0-2.656 1.195-2.656 2.656v10.688c0 1.461 1.195 2.656 2.656 2.656h10.688c1.461 0 2.656-1.195 2.656-2.656v-10.688c0-1.461-1.195-2.656-2.656-2.656zM5.122 7h5.756c0.109 0.313 0.169 0.65 0.169 1 0 1.68-1.367 3.047-3.047 3.047s-3.047-1.367-3.047-3.047c0-0.35 0.060-0.687 0.169-1zM14 7.001v5.999c0 0.55-0.45 1-1 1h-10c-0.55 0-1-0.45-1-1v-6h1.564c-0.073 0.322-0.111 0.657-0.111 1 0 2.507 2.040 4.547 4.547 4.547s4.547-2.040 4.547-4.547c0-0.343-0.039-0.678-0.111-1l1.564 0.001zM14 3.5c0 0.275-0.225 0.5-0.5 0.5h-1c-0.275 0-0.5-0.225-0.5-0.5v-1c0-0.275 0.225-0.5 0.5-0.5h1c0.275 0 0.5 0.225 0.5 0.5v1z"
     fill="#000" />
</svg>
